<svg width="140" height="25" viewBox="0 0 118 16" fill="none" xmlns="http://www.w3.org/2000/svg">
<path d="M9.38281 7.26562C9.38281 6.38542 8.96094 5.94531 8.11719 5.94531C7.7526 5.94531 7.34635 6.17448 6.89844 6.63281C6.22656 7.32552 5.75781 8.15104 5.49219 9.10938C5.40885 9.41146 5.36719 9.6901 5.36719 9.94531C5.36719 10.8099 5.80469 11.2422 6.67969 11.2422C7.02865 11.2474 7.42708 11.0156 7.875 10.5469C8.52604 9.85938 8.98698 9.02604 9.25781 8.04688C9.34115 7.74479 9.38281 7.48438 9.38281 7.26562ZM7.25 15.3047C5.40104 15.3047 3.79688 14.7057 2.4375 13.5078C2.00521 13.1276 1.63021 12.6927 1.3125 12.2031C0.635417 11.1667 0.296875 10.0078 0.296875 8.72656C0.296875 7.4401 0.609375 6.30208 1.23438 5.3125C1.85938 4.32292 2.69792 3.55208 3.75 3C4.80208 2.44792 5.89062 2.17188 7.01562 2.17188C8.14583 2.17188 9.14062 2.32292 10 2.625C10.8594 2.92708 11.6068 3.36198 12.2422 3.92969C12.8828 4.49219 13.3854 5.18229 13.75 6C14.1146 6.81771 14.2969 7.74219 14.2969 8.77344C14.2969 10.0547 13.9714 11.1953 13.3203 12.1953C12.6693 13.1901 11.8021 13.9583 10.7188 14.5C9.63542 15.0365 8.47917 15.3047 7.25 15.3047ZM21.1016 7.92969C20.6849 7.92969 20.4766 8.26562 20.4766 8.9375V15H15.8359V5.28906H18.3984L19.5156 6.80469C19.9323 6.22656 20.5078 5.76823 21.2422 5.42969C21.9818 5.09115 22.6719 4.92188 23.3125 4.92188C24.4896 4.92188 25.4219 5.23438 26.1094 5.85938C26.8021 6.48438 27.1484 7.32292 27.1484 8.375V15H22.4766V10.3125C22.4766 8.72396 22.0182 7.92969 21.1016 7.92969ZM33.4219 15H28.9922V1.85156H33.4219V15ZM37.7266 0.789062C38.4922 0.789062 39.0599 0.950521 39.4297 1.27344C39.7995 1.59115 39.9818 1.9974 39.9766 2.49219C39.9766 2.98698 39.7396 3.44271 39.2656 3.85938C38.7969 4.27604 38.1693 4.48438 37.3828 4.48438C36.2786 4.48438 35.5911 4.15104 35.3203 3.48438C35.2422 3.29688 35.2031 3.08854 35.2031 2.85938C35.2031 2.63021 35.2578 2.39062 35.3672 2.14062C35.4766 1.89062 35.6406 1.66667 35.8594 1.46875C36.3438 1.01562 36.9661 0.789062 37.7266 0.789062ZM39.8438 15H35.3203V5.28906H39.8438V15ZM47.0078 7.92969C46.5911 7.92969 46.3828 8.26562 46.3828 8.9375V15H41.7422V5.28906H44.3047L45.4219 6.80469C45.8385 6.22656 46.4141 5.76823 47.1484 5.42969C47.888 5.09115 48.5781 4.92188 49.2188 4.92188C50.3958 4.92188 51.3281 5.23438 52.0156 5.85938C52.7083 6.48438 53.0547 7.32292 53.0547 8.375V15H48.3828V10.3125C48.3828 8.72396 47.9245 7.92969 47.0078 7.92969ZM61.2344 8.07031C61.2344 7.61198 61.0208 7.38281 60.5938 7.38281C60.1042 7.42969 59.7865 7.68229 59.6406 8.14062C59.5677 8.35938 59.5156 8.61458 59.4844 8.90625C59.4583 9.19271 59.4167 9.5 59.3594 9.82812L61.0703 9.44531L61.2188 8.25L61.2344 8.07031ZM60.1797 11.625C60.1797 11.625 60.0365 11.625 59.75 11.625C59.6146 11.625 59.4844 11.6198 59.3594 11.6094C59.3594 12.2292 59.6901 12.5677 60.3516 12.625C60.5339 12.6406 60.7109 12.6484 60.8828 12.6484C61.3255 12.6484 61.8802 12.5469 62.5469 12.3438C63.2188 12.1406 63.8203 11.8099 64.3516 11.3516L64.8359 13.7812C63.6745 14.7865 61.9193 15.2891 59.5703 15.2891C58.2214 15.2891 57.0625 14.8958 56.0938 14.1094C55.0417 13.25 54.5156 12.0599 54.5156 10.5391C54.5156 9.39323 54.8125 8.36458 55.4062 7.45312C55.9583 6.61979 56.7057 5.98698 57.6484 5.55469C58.5911 5.1224 59.6094 4.90625 60.7031 4.90625C62.1198 4.90625 63.1901 5.21615 63.9141 5.83594C64.6432 6.45573 65.0052 7.22135 65 8.13281C65 9.04427 64.5651 9.85417 63.6953 10.5625C62.8255 11.2708 61.6536 11.625 60.1797 11.625ZM71.1406 15.3047C68.8021 15.3047 67.25 15.0156 66.4844 14.4375V10.8594C66.5052 10.8646 66.5807 10.888 66.7109 10.9297C66.8464 10.9714 67.0156 11.0234 67.2188 11.0859C67.6927 11.2318 68.1901 11.3698 68.7109 11.5C69.237 11.625 69.6589 11.6875 69.9766 11.6875C70.4974 11.6875 70.7578 11.5286 70.7578 11.2109C70.7578 10.9661 70.5339 10.7057 70.0859 10.4297C69.8828 10.3047 69.651 10.1745 69.3906 10.0391C69.1354 9.90365 68.875 9.7526 68.6094 9.58594C67.9583 9.1849 67.4349 8.71615 67.0391 8.17969C66.6484 7.64323 66.4531 6.96615 66.4531 6.14844C66.4531 4.36198 67.3958 3.16146 69.2812 2.54688C70.0469 2.29688 70.9297 2.17188 71.9297 2.17188C72.9349 2.17188 73.9844 2.28646 75.0781 2.51562C75.3021 2.5625 75.4505 2.59635 75.5234 2.61719V6.20312C74.1068 5.90104 73.0885 5.75 72.4688 5.75C72.2292 5.75 72.0495 5.79167 71.9297 5.875C71.8099 5.95833 71.75 6.05208 71.75 6.15625C71.75 6.26042 71.8021 6.36979 71.9062 6.48438C72.0104 6.59375 72.1901 6.70573 72.4453 6.82031C72.7005 6.92969 72.9974 7.0651 73.3359 7.22656C73.6797 7.38281 74 7.55208 74.2969 7.73438C75.6302 8.55208 76.2969 9.66927 76.2969 11.0859C76.2969 12.4297 75.8438 13.4688 74.9375 14.2031C74.0208 14.9323 72.7552 15.2995 71.1406 15.3047ZM85.2891 14.2969C84.2995 14.9688 83.25 15.3047 82.1406 15.3047C81.0365 15.3047 80.138 14.9922 79.4453 14.3672C78.7526 13.737 78.4062 12.8906 78.4062 11.8281V7.76562H77.5156V5.28906H78.4062V2.66406L83.0781 2.1875V5.28906H85.2891V7.76562H83.0781V10.2188C83.0781 10.9531 83.2422 11.487 83.5703 11.8203C83.9036 12.1484 84.4766 12.3125 85.2891 12.3125V14.2969ZM93.4531 8.05469C93.349 8.0026 93.2135 7.97656 93.0469 7.97656C92.8854 7.97656 92.7057 8.02604 92.5078 8.125C92.3099 8.21875 92.1146 8.34896 91.9219 8.51562C91.5156 8.86979 91.1745 9.29948 90.8984 9.80469C90.6224 10.3099 90.4844 10.776 90.4844 11.2031C90.4844 11.625 90.6458 11.9089 90.9688 12.0547C91.0833 12.1068 91.224 12.1328 91.3906 12.1328C91.5573 12.1328 91.7318 12.0833 91.9141 11.9844C92.0964 11.8802 92.2786 11.7422 92.4609 11.5703C92.8411 11.2109 93.1745 10.776 93.4609 10.2656C93.7474 9.75 93.8906 9.28906 93.8906 8.88281C93.8906 8.47656 93.7448 8.20052 93.4531 8.05469ZM91.9375 15.2891C90.4479 15.2891 89.1641 14.8177 88.0859 13.875C86.9349 12.875 86.3594 11.6172 86.3594 10.1016C86.3594 8.58073 86.8984 7.33854 87.9766 6.375C89.0547 5.40625 90.3854 4.92188 91.9688 4.92188C93.5521 4.92188 94.8828 5.39583 95.9609 6.34375C97.0391 7.28646 97.5807 8.54948 97.5859 10.1328C97.5911 11.1484 97.3333 12.0469 96.8125 12.8281C96.2917 13.6094 95.5964 14.2135 94.7266 14.6406C93.8568 15.0677 92.9271 15.2839 91.9375 15.2891ZM106.078 8.95312C105.599 8.95312 105.107 9.1276 104.602 9.47656C104.096 9.82552 103.841 10.1562 103.836 10.4688V15H99.1328V5.28906H103.836V6.32812C104.102 5.92708 104.43 5.60677 104.82 5.36719C105.216 5.1276 105.635 4.98438 106.078 4.9375V8.95312ZM113.812 8.07031C113.812 7.61198 113.599 7.38281 113.172 7.38281C112.682 7.42969 112.365 7.68229 112.219 8.14062C112.146 8.35938 112.094 8.61458 112.062 8.90625C112.036 9.19271 111.995 9.5 111.938 9.82812L113.648 9.44531L113.797 8.25L113.812 8.07031ZM112.758 11.625C112.758 11.625 112.615 11.625 112.328 11.625C112.193 11.625 112.062 11.6198 111.938 11.6094C111.938 12.2292 112.268 12.5677 112.93 12.625C113.112 12.6406 113.289 12.6484 113.461 12.6484C113.904 12.6484 114.458 12.5469 115.125 12.3438C115.797 12.1406 116.398 11.8099 116.93 11.3516L117.414 13.7812C116.253 14.7865 114.497 15.2891 112.148 15.2891C110.799 15.2891 109.641 14.8958 108.672 14.1094C107.62 13.25 107.094 12.0599 107.094 10.5391C107.094 9.39323 107.391 8.36458 107.984 7.45312C108.536 6.61979 109.284 5.98698 110.227 5.55469C111.169 5.1224 112.188 4.90625 113.281 4.90625C114.698 4.90625 115.768 5.21615 116.492 5.83594C117.221 6.45573 117.583 7.22135 117.578 8.13281C117.578 9.04427 117.143 9.85417 116.273 10.5625C115.404 11.2708 114.232 11.625 112.758 11.625Z" fill="black"/>
</svg>
